<?xml version="1.0" encoding="utf-8"?>
<!-- Generator: Adobe Illustrator 19.2.1, SVG Export Plug-In . SVG Version: 6.00 Build 0)  -->
<svg version="1.1" id="Capa_1" xmlns="http://www.w3.org/2000/svg" xmlns:xlink="http://www.w3.org/1999/xlink" x="0px" y="0px"
	 viewBox="0 0 308.7 120.7" style="enable-background:new 0 0 308.7 120.7;" xml:space="preserve">
<style type="text/css">
	.st0{fill:#F2B630;}
</style>
<path class="st0" d="M92.8,64.5c-2.6,0-4.9,1.3-6.3,3.3l-5.7-1c0-0.2,0-0.4,0-0.6c0-2.5-0.5-4.9-1.4-7.1l9.6-5.8
	c1.3,1,2.9,1.6,4.7,1.6c4.2,0,7.7-3.5,7.7-7.7c0-4.2-3.5-7.7-7.7-7.7c-4.2,0-7.7,3.5-7.7,7.7c0,0.5,0,0.9,0.1,1.3l-9.6,5.8
	c-2.9-3.5-7.1-6-11.8-6.7V35.7c3.5-1.2,6.1-4.5,6.1-8.4c0-4.9-4-8.9-8.9-8.9c-4.9,0-8.9,4-8.9,8.9c0,3.9,2.6,7.3,6.1,8.4v11.8
	c-6.4,1-11.8,5.2-14.4,11L27.1,53c0.1-0.4,0.1-0.9,0.1-1.3c0-6-4.9-11-11-11c-6,0-11,4.9-11,11c0,6,4.9,11,11,11
	c3.6,0,6.8-1.7,8.8-4.4l18.2,5.6c-0.1,0.8-0.1,1.5-0.1,2.3c0,5.1,2,9.7,5.3,13.1l-7.9,8.4c-1.2-0.5-2.4-0.8-3.8-0.8
	c-5.1,0-9.3,4.2-9.3,9.3c0,5.1,4.2,9.3,9.3,9.3c5.1,0,9.3-4.2,9.3-9.3c0-1.8-0.5-3.4-1.3-4.8l8.2-8.7c2.7,1.5,5.8,2.4,9.1,2.4
	c3.2,0,6.2-0.8,8.8-2.2l8.2,12.4c-2,2-3.2,4.7-3.2,7.8c0,6,4.9,11,11,11s11-4.9,11-11c0-6-4.9-11-11-11c-1,0-1.9,0.1-2.8,0.4
	l-8.5-13c2-2,3.6-4.5,4.5-7.2l5.4,0.9c0.5,3.7,3.7,6.6,7.6,6.6c4.2,0,7.7-3.5,7.7-7.7C100.6,68,97.1,64.5,92.8,64.5z M48.7,66.2
	c0-7.3,6-13.3,13.3-13.3c7.3,0,13.3,6,13.3,13.3c0,7.3-6,13.3-13.3,13.3C54.7,79.4,48.7,73.5,48.7,66.2z"/>
<g>
	<path class="st0" d="M115.2,99.2c0-0.4,0.1-0.7,0.3-0.9c0.2-0.2,0.5-0.3,1-0.3c0.4,0,0.7,0.1,0.9,0.3c0.2,0.2,0.3,0.5,0.3,0.9
		c0,0.4-0.1,0.7-0.3,0.9s-0.5,0.3-0.9,0.3c-0.4,0-0.7-0.1-1-0.3S115.2,99.6,115.2,99.2z M117.7,112.9h-2.3v-10.8h2.3V112.9z"/>
	<path class="st0" d="M130,112.9h-2.3v-6.6c0-0.8-0.2-1.5-0.5-1.9s-0.9-0.6-1.6-0.6c-1,0-1.7,0.3-2.1,0.9c-0.4,0.6-0.7,1.5-0.7,2.9
		v5.4h-2.3v-10.8h1.8l0.3,1.4h0.1c0.3-0.5,0.8-0.9,1.4-1.2c0.6-0.3,1.3-0.4,2-0.4c2.6,0,3.9,1.3,3.9,4V112.9z"/>
	<path class="st0" d="M138.1,103.8h-2.6v9.1h-2.3v-9.1h-1.8v-1.1l1.8-0.7v-0.7c0-1.3,0.3-2.2,0.9-2.8s1.5-0.9,2.7-0.9
		c0.8,0,1.6,0.1,2.4,0.4l-0.6,1.7c-0.6-0.2-1.1-0.3-1.6-0.3c-0.5,0-0.9,0.2-1.1,0.5s-0.4,0.8-0.4,1.5v0.7h2.6V103.8z"/>
	<path class="st0" d="M149,107.4c0,1.8-0.5,3.1-1.4,4.1c-0.9,1-2.2,1.5-3.8,1.5c-1,0-1.9-0.2-2.7-0.7c-0.8-0.5-1.4-1.1-1.8-2
		c-0.4-0.9-0.6-1.8-0.6-3c0-1.8,0.4-3.1,1.3-4.1c0.9-1,2.2-1.5,3.8-1.5c1.6,0,2.8,0.5,3.7,1.5S149,105.7,149,107.4z M141.1,107.4
		c0,2.5,0.9,3.7,2.8,3.7c1.8,0,2.7-1.2,2.7-3.7c0-2.5-0.9-3.7-2.8-3.7c-1,0-1.7,0.3-2.1,1C141.3,105.3,141.1,106.3,141.1,107.4z"/>
	<path class="st0" d="M156.6,101.9c0.5,0,0.8,0,1.1,0.1l-0.2,2.1c-0.3-0.1-0.7-0.1-1-0.1c-0.9,0-1.7,0.3-2.2,0.9
		c-0.6,0.6-0.9,1.4-0.9,2.3v5.6h-2.3v-10.8h1.8l0.3,1.9h0.1c0.4-0.6,0.8-1.2,1.4-1.5C155.3,102.1,155.9,101.9,156.6,101.9z"/>
	<path class="st0" d="M168.4,112.9h-2.3v-6.7c0-0.8-0.2-1.4-0.5-1.9c-0.3-0.4-0.8-0.6-1.5-0.6c-0.9,0-1.5,0.3-1.9,0.9
		s-0.6,1.5-0.6,2.9v5.4h-2.3v-10.8h1.8l0.3,1.4h0.1c0.3-0.5,0.7-0.9,1.3-1.2c0.6-0.3,1.2-0.4,1.9-0.4c1.7,0,2.8,0.6,3.3,1.7h0.2
		c0.3-0.5,0.8-1,1.3-1.2c0.6-0.3,1.2-0.4,2-0.4c1.3,0,2.2,0.3,2.8,1c0.6,0.7,0.9,1.6,0.9,3v7h-2.3v-6.7c0-0.8-0.2-1.4-0.5-1.9
		c-0.3-0.4-0.8-0.6-1.5-0.6c-0.9,0-1.5,0.3-2,0.8s-0.6,1.4-0.6,2.6V112.9z"/>
	<path class="st0" d="M184.6,112.9l-0.5-1.5h-0.1c-0.5,0.7-1,1.1-1.6,1.3c-0.5,0.2-1.2,0.4-2,0.4c-1.1,0-1.9-0.3-2.5-0.9
		c-0.6-0.6-0.9-1.4-0.9-2.4c0-1.1,0.4-2,1.2-2.5s2.1-0.9,3.8-0.9l1.9-0.1v-0.6c0-0.7-0.2-1.2-0.5-1.5s-0.8-0.5-1.5-0.5
		c-0.6,0-1.1,0.1-1.6,0.2c-0.5,0.2-1,0.4-1.5,0.6l-0.7-1.6c0.6-0.3,1.2-0.5,1.9-0.7c0.7-0.2,1.4-0.2,2-0.2c1.4,0,2.4,0.3,3.1,0.9
		c0.7,0.6,1,1.5,1,2.8v7.3H184.6z M181.2,111.3c0.8,0,1.5-0.2,2-0.7c0.5-0.5,0.8-1.1,0.8-2v-0.9l-1.4,0.1c-1.1,0-1.9,0.2-2.4,0.5
		s-0.7,0.8-0.7,1.5c0,0.5,0.1,0.9,0.4,1.1S180.6,111.3,181.2,111.3z"/>
	<path class="st0" d="M193,111.2c0.6,0,1.1-0.1,1.7-0.3v1.7c-0.3,0.1-0.6,0.2-1,0.3c-0.4,0.1-0.8,0.1-1.2,0.1
		c-2.2,0-3.3-1.1-3.3-3.4v-5.8h-1.5v-1l1.6-0.8l0.8-2.3h1.4v2.4h3.1v1.7h-3.1v5.8c0,0.6,0.1,1,0.4,1.2S192.6,111.2,193,111.2z"/>
	<path class="st0" d="M196.2,99.2c0-0.4,0.1-0.7,0.3-0.9c0.2-0.2,0.5-0.3,1-0.3c0.4,0,0.7,0.1,0.9,0.3c0.2,0.2,0.3,0.5,0.3,0.9
		c0,0.4-0.1,0.7-0.3,0.9s-0.5,0.3-0.9,0.3c-0.4,0-0.7-0.1-1-0.3S196.2,99.6,196.2,99.2z M198.6,112.9h-2.3v-10.8h2.3V112.9z"/>
	<path class="st0" d="M211,107.4c0,1.8-0.5,3.1-1.4,4.1c-0.9,1-2.2,1.5-3.8,1.5c-1,0-1.9-0.2-2.7-0.7c-0.8-0.5-1.4-1.1-1.8-2
		c-0.4-0.9-0.6-1.8-0.6-3c0-1.8,0.4-3.1,1.3-4.1c0.9-1,2.2-1.5,3.8-1.5c1.6,0,2.8,0.5,3.7,1.5S211,105.7,211,107.4z M203.1,107.4
		c0,2.5,0.9,3.7,2.8,3.7c1.8,0,2.7-1.2,2.7-3.7c0-2.5-0.9-3.7-2.8-3.7c-1,0-1.7,0.3-2.1,1C203.3,105.3,203.1,106.3,203.1,107.4z"/>
	<path class="st0" d="M222.6,112.9h-2.3v-6.6c0-0.8-0.2-1.5-0.5-1.9s-0.9-0.6-1.6-0.6c-1,0-1.7,0.3-2.1,0.9
		c-0.4,0.6-0.7,1.5-0.7,2.9v5.4h-2.3v-10.8h1.8l0.3,1.4h0.1c0.3-0.5,0.8-0.9,1.4-1.2c0.6-0.3,1.3-0.4,2-0.4c2.6,0,3.9,1.3,3.9,4
		V112.9z"/>
	<path class="st0" d="M237.3,109.8c0,1.1-0.4,1.9-1.2,2.4c-0.8,0.6-1.9,0.8-3.3,0.8c-1.4,0-2.6-0.2-3.5-0.7v-2
		c1.3,0.6,2.5,0.9,3.5,0.9c1.4,0,2.1-0.4,2.1-1.3c0-0.3-0.1-0.5-0.2-0.7c-0.2-0.2-0.4-0.4-0.8-0.6s-0.9-0.4-1.5-0.7
		c-1.2-0.5-2.1-1-2.5-1.4c-0.4-0.5-0.7-1.1-0.7-1.9c0-0.9,0.4-1.6,1.1-2.2c0.7-0.5,1.8-0.8,3-0.8c1.3,0,2.5,0.3,3.6,0.8l-0.7,1.7
		c-1.2-0.5-2.1-0.7-2.9-0.7c-1.2,0-1.8,0.3-1.8,1c0,0.3,0.2,0.6,0.5,0.9s1,0.6,2.1,1c0.9,0.3,1.5,0.7,1.9,0.9c0.4,0.3,0.7,0.6,0.9,1
		C237.2,108.8,237.3,109.3,237.3,109.8z"/>
	<path class="st0" d="M237.6,102.1h2.5l2.2,6.1c0.3,0.9,0.6,1.7,0.7,2.5h0.1c0.1-0.4,0.2-0.8,0.3-1.3c0.2-0.5,1-2.9,2.5-7.3h2.5
		l-4.6,12.2c-0.8,2.2-2.2,3.4-4.2,3.4c-0.5,0-1-0.1-1.5-0.2v-1.8c0.3,0.1,0.7,0.1,1.2,0.1c1.1,0,1.9-0.6,2.3-1.9l0.4-1L237.6,102.1z
		"/>
	<path class="st0" d="M256.7,109.8c0,1.1-0.4,1.9-1.2,2.4c-0.8,0.6-1.9,0.8-3.3,0.8c-1.4,0-2.6-0.2-3.5-0.7v-2
		c1.3,0.6,2.5,0.9,3.5,0.9c1.4,0,2.1-0.4,2.1-1.3c0-0.3-0.1-0.5-0.2-0.7c-0.2-0.2-0.4-0.4-0.8-0.6s-0.9-0.4-1.5-0.7
		c-1.2-0.5-2.1-1-2.5-1.4c-0.4-0.5-0.7-1.1-0.7-1.9c0-0.9,0.4-1.6,1.1-2.2c0.7-0.5,1.8-0.8,3-0.8c1.3,0,2.5,0.3,3.6,0.8l-0.7,1.7
		c-1.2-0.5-2.1-0.7-2.9-0.7c-1.2,0-1.8,0.3-1.8,1c0,0.3,0.2,0.6,0.5,0.9s1,0.6,2.1,1c0.9,0.3,1.5,0.7,1.9,0.9c0.4,0.3,0.7,0.6,0.9,1
		C256.6,108.8,256.7,109.3,256.7,109.8z"/>
	<path class="st0" d="M262.7,111.2c0.6,0,1.1-0.1,1.7-0.3v1.7c-0.3,0.1-0.6,0.2-1,0.3c-0.4,0.1-0.8,0.1-1.2,0.1
		c-2.2,0-3.3-1.1-3.3-3.4v-5.8h-1.5v-1l1.6-0.8l0.8-2.3h1.4v2.4h3.1v1.7h-3.1v5.8c0,0.6,0.1,1,0.4,1.2S262.3,111.2,262.7,111.2z"/>
	<path class="st0" d="M270.8,113.1c-1.7,0-3-0.5-3.9-1.5c-0.9-1-1.4-2.3-1.4-4c0-1.8,0.4-3.2,1.3-4.2c0.9-1,2.1-1.5,3.6-1.5
		c1.4,0,2.6,0.4,3.4,1.3c0.8,0.9,1.2,2.1,1.2,3.6v1.2h-7.2c0,1,0.3,1.9,0.8,2.4c0.5,0.6,1.3,0.8,2.3,0.8c0.6,0,1.2-0.1,1.8-0.2
		c0.5-0.1,1.1-0.3,1.8-0.6v1.9c-0.6,0.3-1.1,0.5-1.7,0.6C272.2,113,271.5,113.1,270.8,113.1z M270.4,103.6c-0.7,0-1.3,0.2-1.8,0.7
		c-0.4,0.5-0.7,1.1-0.8,2h4.9c0-0.9-0.2-1.6-0.6-2S271.1,103.6,270.4,103.6z"/>
	<path class="st0" d="M286.2,112.9h-2.3v-6.7c0-0.8-0.2-1.4-0.5-1.9c-0.3-0.4-0.8-0.6-1.5-0.6c-0.9,0-1.5,0.3-1.9,0.9
		s-0.6,1.5-0.6,2.9v5.4h-2.3v-10.8h1.8l0.3,1.4h0.1c0.3-0.5,0.7-0.9,1.3-1.2c0.6-0.3,1.2-0.4,1.9-0.4c1.7,0,2.8,0.6,3.3,1.7h0.2
		c0.3-0.5,0.8-1,1.3-1.2c0.6-0.3,1.2-0.4,2-0.4c1.3,0,2.2,0.3,2.8,1c0.6,0.7,0.9,1.6,0.9,3v7h-2.3v-6.7c0-0.8-0.2-1.4-0.5-1.9
		c-0.3-0.4-0.8-0.6-1.5-0.6c-0.9,0-1.5,0.3-2,0.8s-0.6,1.4-0.6,2.6V112.9z"/>
	<path class="st0" d="M303,109.8c0,1.1-0.4,1.9-1.2,2.4c-0.8,0.6-1.9,0.8-3.3,0.8c-1.4,0-2.6-0.2-3.5-0.7v-2
		c1.3,0.6,2.5,0.9,3.5,0.9c1.4,0,2.1-0.4,2.1-1.3c0-0.3-0.1-0.5-0.2-0.7c-0.2-0.2-0.4-0.4-0.8-0.6s-0.9-0.4-1.5-0.7
		c-1.2-0.5-2.1-1-2.5-1.4c-0.4-0.5-0.7-1.1-0.7-1.9c0-0.9,0.4-1.6,1.1-2.2c0.7-0.5,1.8-0.8,3-0.8c1.3,0,2.5,0.3,3.6,0.8l-0.7,1.7
		c-1.2-0.5-2.1-0.7-2.9-0.7c-1.2,0-1.8,0.3-1.8,1c0,0.3,0.2,0.6,0.5,0.9s1,0.6,2.1,1c0.9,0.3,1.5,0.7,1.9,0.9c0.4,0.3,0.7,0.6,0.9,1
		C302.9,108.8,303,109.3,303,109.8z"/>
</g>
<g>
	<path class="st0" d="M125.2,48.8l19.7,26.2V48.8h10.5v43.5h-9.9l-19.7-26v26h-10.6V48.8H125.2z"/>
	<path class="st0" d="M209.7,70.5c0,12.7-10,22.3-23.5,22.3s-23.5-9.5-23.5-22.3c0-12.6,10-22,23.5-22S209.7,57.9,209.7,70.5z
		 M174.4,70.5c0,7.1,5.5,12.5,12,12.5c6.5,0,11.7-5.5,11.7-12.5c0-7.1-5.2-12.4-11.7-12.4S174.4,63.5,174.4,70.5z"/>
	<path class="st0" d="M224.2,48.8L235,80.2l10.9-31.4h11.7l-17,43.5h-11.8L212,48.8H224.2z"/>
	<path class="st0" d="M288.8,84.6H270l-3,7.7h-11.7L274,48.8h11.7l18.2,43.5h-12.1L288.8,84.6z M285.4,75.9l-6-15.5l-6.1,15.5H285.4
		z"/>
</g>
</svg>
